<?xml version="1.0" standalone="no"?>
<!DOCTYPE svg PUBLIC "-//W3C//DTD SVG 20010904//EN"
 "http://www.w3.org/TR/2001/REC-SVG-20010904/DTD/svg10.dtd">
<svg version="1.0" xmlns="http://www.w3.org/2000/svg"
 width="700.000000pt" height="700.000000pt" viewBox="0 0 700.000000 700.000000"
 preserveAspectRatio="xMidYMid meet">
<metadata>
Created by potrace 1.11, written by Peter Selinger 2001-2013
</metadata>
<g transform="translate(0.000000,700.000000) scale(0.100000,-0.100000)"
fill="#000000" stroke="none">
<path d="M3333 6851 c-159 -164 -210 -221 -289 -326 -195 -257 -315 -505 -364
-747 l-11 -57 -82 29 c-568 199 -1143 239 -1558 109 -74 -23 -69 -11 -48 -134
16 -89 17 -91 39 -179 28 -108 94 -301 138 -406 79 -189 228 -454 342 -610 26
-36 50 -70 54 -77 4 -8 -19 -25 -66 -48 -262 -132 -537 -382 -762 -693 l-67
-93 108 74 c268 186 644 359 894 413 97 21 182 35 194 32 7 -2 56 -43 107 -93
155 -150 298 -270 453 -381 101 -72 312 -204 327 -204 25 0 -8 -20 -77 -46
-74 -27 -277 -94 -304 -99 -9 -2 -43 -10 -76 -18 -67 -18 -82 -21 -205 -42
-113 -19 -142 -23 -225 -30 -83 -8 -321 -9 -415 -2 -259 18 -562 97 -760 197
-33 17 -60 28 -60 26 0 -4 197 -122 290 -173 123 -68 351 -159 490 -197 152
-40 233 -55 400 -72 59 -6 302 -5 355 1 283 34 511 90 768 191 61 24 115 44
118 44 11 0 70 -151 90 -230 38 -155 42 -371 9 -525 -5 -22 -11 -51 -13 -65
-25 -135 -96 -324 -222 -585 -112 -234 -206 -479 -229 -601 -2 -10 -9 -37 -14
-59 -6 -22 -13 -58 -17 -80 -3 -23 -8 -52 -10 -65 -9 -42 -19 -172 -19 -240 0
-210 41 -398 119 -549 20 -39 38 -71 40 -71 2 0 -5 30 -16 68 -10 37 -23 92
-29 122 -5 30 -12 69 -15 85 -7 41 -8 259 0 320 22 185 67 347 148 535 54 124
109 222 214 383 101 155 179 289 217 372 15 33 32 68 37 79 16 28 79 203 95
266 16 59 38 167 49 240 13 80 13 323 0 403 -7 42 -11 77 -9 77 1 0 65 -23
142 -50 365 -131 767 -236 1047 -274 22 -3 72 -10 110 -15 206 -29 481 -31
695 -6 84 9 186 33 275 63 56 19 151 65 120 58 -202 -47 -592 -8 -1034 103
-130 33 -395 112 -404 120 -4 4 -1 32 6 62 68 266 -203 487 -451 368 -73 -36
-162 -141 -162 -194 0 -8 -2 -15 -4 -15 -2 0 -64 25 -137 56 -74 31 -140 58
-146 61 -15 6 -17 23 -3 23 5 0 65 32 132 71 180 104 489 279 493 279 3 0 30
12 61 26 100 46 262 98 337 109 23 4 62 10 87 15 118 22 335 7 489 -34 150
-40 371 -164 488 -272 15 -14 44 -40 63 -58 123 -112 287 -328 380 -501 23
-44 46 -84 50 -89 7 -7 330 178 330 189 0 14 -259 368 -331 452 -184 213 -361
367 -545 472 -430 247 -935 247 -1512 0 -62 -27 -161 -74 -220 -105 -134 -72
-141 -76 -172 -95 -93 -59 -373 -231 -413 -253 -26 -14 -58 -33 -71 -41 -21
-14 -27 -13 -82 14 -84 40 -293 163 -399 234 -504 336 -981 809 -1299 1287
-87 130 -175 283 -208 360 -11 25 -25 58 -33 75 -7 16 -20 50 -28 75 -13 41
-13 46 2 46 9 1 70 5 136 9 178 13 447 7 496 -9 8 -3 31 -7 51 -10 209 -31
456 -131 671 -273 116 -77 180 -129 302 -246 l90 -87 7 33 c4 17 10 48 13 67
14 89 19 114 46 250 17 80 32 152 34 160 106 446 231 783 364 979 45 66 148
181 162 181 19 0 142 -212 210 -364 74 -162 163 -438 194 -601 22 -116 38
-234 50 -370 3 -27 5 -135 5 -238 l1 -189 21 19 c12 10 45 39 73 65 55 51 86
75 228 180 342 251 788 423 1182 454 94 8 273 9 280 2 3 -3 -19 -61 -49 -129
-185 -429 -416 -784 -664 -1021 -91 -86 -91 -87 -54 -80 124 21 320 -17 464
-89 l57 -29 39 68 c158 273 283 586 328 817 4 22 8 45 9 50 19 89 27 371 13
450 -4 22 -7 43 -8 47 -1 18 -235 66 -410 84 -78 8 -290 8 -380 -1 -269 -24
-503 -84 -746 -190 l-78 -34 -19 72 c-19 75 -70 230 -91 282 -121 286 -212
451 -338 613 -69 89 -234 253 -299 298 l-44 30 -132 -135z"/>
<path d="M3328 5155 c-2 -2 -26 -5 -54 -9 -212 -25 -412 -206 -468 -423 -31
-118 -17 -274 32 -381 9 -20 19 -39 22 -42 3 -3 11 -17 19 -33 28 -54 141
-155 215 -192 96 -48 165 -65 266 -65 263 0 480 166 555 425 22 75 22 217 0
293 -63 215 -250 387 -455 417 -54 7 -128 13 -132 10z m176 -354 c109 -68 150
-217 91 -336 -47 -98 -146 -152 -256 -142 -244 22 -323 338 -118 474 85 56
196 57 283 4z"/>
<path d="M3891 2632 c-65 -22 -135 -95 -156 -164 -54 -172 77 -342 256 -333
137 8 240 117 241 255 2 172 -176 298 -341 242z"/>
<path d="M3574 1858 c-51 -11 -119 -68 -140 -117 -42 -99 2 -217 101 -269 43
-23 131 -20 180 5 50 26 69 46 94 102 67 151 -71 315 -235 279z"/>
<path d="M3220 1219 c-59 -24 -100 -85 -102 -152 -2 -142 166 -217 272 -121
47 43 66 106 49 167 -24 89 -132 140 -219 106z"/>
<path d="M3115 603 c-46 -11 -85 -70 -78 -117 5 -35 31 -71 61 -85 31 -15 48
-14 89 6 42 19 66 67 57 112 -7 33 -48 81 -70 81 -7 0 -18 2 -26 4 -7 2 -22 1
-33 -1z"/>
<path d="M3274 150 c-26 -10 -35 -23 -40 -58 -10 -75 103 -105 135 -36 13 30
-9 94 -33 94 -8 0 -20 2 -28 4 -7 3 -23 1 -34 -4z"/>
</g>
</svg>
