<svg xmlns="http://www.w3.org/2000/svg" viewBox="0 0 340.9 233.4"><style type="text/css">
	.st0{fill:#898B8D;}
	.st1{fill:#A5CD39;}
</style><path class="st0" d="M93.2 108.2c0.4 5.1 4.8 9 9.9 8.6 5.1-0.4 9-4.8 8.6-9.9 -0.4-5.1-4.8-9-9.9-8.6C96.7 98.6 92.9 103.1 93.2 108.2z"/><path class="st0" d="M91.1 133.3c0.3 4.1 3.9 7.2 8 6.9 4.1-0.3 7.2-3.9 6.9-8 -0.3-4.1-3.9-7.2-8-6.9C93.9 125.7 90.8 129.2 91.1 133.3z"/><path class="st0" d="M82.3 154.3c0.2 3.3 3.1 5.7 6.4 5.5 3.3-0.2 5.7-3.1 5.5-6.4 -0.2-3.3-3.1-5.7-6.4-5.5C84.6 148.2 82.1 151 82.3 154.3z"/><path class="st0" d="M73.6 171.4c0.2 2.6 2.5 4.6 5.1 4.4 2.6-0.2 4.6-2.5 4.4-5.1 -0.2-2.6-2.5-4.6-5.1-4.4C75.4 166.5 73.4 168.8 73.6 171.4z"/><path class="st0" d="M71.2 187.7c0.1 1.7 1.6 3 3.3 2.9 1.7-0.1 3-1.6 2.9-3.3 -0.1-1.7-1.6-3-3.3-2.9C72.4 184.5 71.1 186 71.2 187.7z"/><path class="st0" d="M77 199.5c0.1 1.2 1.1 2 2.3 1.9 1.2-0.1 2-1.1 1.9-2.3 -0.1-1.2-1.1-2-2.3-1.9C77.8 197.3 76.9 198.4 77 199.5z"/><path class="st1" d="M83.8 0C83.8 0 83.8 0 83.8 0 83.8 0 83.8 0 83.8 0z"/><path class="st1" d="M77 98.2c-34-15.6-57.4-47.6-61.5-62 8.9-0.7 30.7-4.3 51 17.9 0 0 5.3-38.9 18.1-48.6 0 0 15.2 19.7 13.1 51.3 0 0 20.9-22.7 51.8-21.2 0 0-8.6 23.8-23.5 35.8 0 0 6.6-2.1 16.3 3.1 0 0 14.7-22.6 11-41.4 0 0-21.5-7.9-46.7 4.2 0 0-5.2-25.3-22.8-37.4 0.1 0.5-20.1 16.4-23.1 36.6 0 0-27.3-11.3-49.3-3.4 0 0 1.6 19.6 17.4 40.3 -4.9 2-15.9 8.2-26.3 23.9 0 0 16-12.9 34.9-15.4 8.2 8.6 18.8 17 32.7 23.8 4.4 6.3 9.3 19.8-2.3 42.3 -17.1 33-3.7 49.2-3.7 49.2s-9.1-19.1 8.7-44.6c13.1-18.8 12.3-34 10.8-41.1 50.9 19.3 69.9 6.3 69.9 6.3S134.5 124.7 77 98.2z"/><path class="st0" d="M64.1 69.5c0-9.2 7.4-16.6 16.6-16.6s16.6 7.5 16.6 16.6 -7.5 16.6-16.6 16.6S64.1 78.7 64.1 69.5zM73.2 69.5c0 4.2 3.4 7.6 7.6 7.6 4.2 0 7.6-3.4 7.6-7.6 0-4.2-3.4-7.6-7.6-7.6C76.6 62 73.2 65.4 73.2 69.5z"/><path class="st0" d="M0 101.3c0 0 33.5 22.9 84.1-10.1 51.4-33.5 73.1 0.3 85.4 17.9l-9.6 5.7c0 0-19.7-45.7-61.4-20.9C68.3 111.7 37.9 127.7 0 101.3z"/><path class="st0" d="M60 214.1c-0.4-1.9-1.1-3.3-2.1-4.2s-2.3-1.4-4-1.4c-1 0-1.9 0.2-2.7 0.5 -0.9 0.3-1.6 0.9-2.2 1.6 -0.6 0.7-1.2 1.7-1.5 2.9 -0.4 1.2-0.6 2.7-0.6 4.4 0 1.1 0.1 2.2 0.4 3.2s0.7 2 1.2 2.8c0.6 0.8 1.3 1.5 2.2 2 0.9 0.5 2 0.8 3.2 0.8 1.5 0 2.7-0.4 3.8-1.1 1.1-0.7 2-1.7 2.8-3.1l0.6 0.4c-0.5 0.9-1 1.7-1.6 2.3 -0.6 0.6-1.2 1.1-1.9 1.5 -0.7 0.4-1.4 0.7-2.2 0.8 -0.8 0.2-1.6 0.2-2.5 0.2 -1.4 0-2.6-0.3-3.8-0.8 -1.1-0.5-2.1-1.2-2.9-2.1 -0.8-0.9-1.4-2-1.8-3.2s-0.6-2.5-0.6-3.9c0-1.5 0.2-2.8 0.7-4.1 0.5-1.3 1.1-2.4 2-3.4 0.8-1 1.8-1.7 2.9-2.3 1.1-0.5 2.3-0.8 3.5-0.8 1.6 0 3 0.2 4.2 0.7s2 1 2.6 1.7c0.4 0.5 0.6 1.1 0.6 1.9 0.1 0.8 0.1 1.6 0.1 2.5H60z"/><path class="st0" d="M85.9 223.8c0 0.9 0.1 1.6 0.4 2.1 0.2 0.5 0.8 0.8 1.7 0.8h0.6v0.6h-2.6c-0.5 0-0.9 0-1.3-0.1 -0.3-0.1-0.6-0.3-0.8-0.5 -0.2-0.3-0.3-0.6-0.4-1.1 -0.1-0.5-0.1-1-0.1-1.8v-5.9h-8.8v9.4h-2.6v-15.9c0-0.9-0.1-1.6-0.4-2.1 -0.2-0.5-0.8-0.8-1.7-0.8h-0.6v-0.6h2.6c0.5 0 0.9 0 1.3 0.1 0.3 0.1 0.6 0.3 0.8 0.5 0.2 0.3 0.3 0.6 0.4 1.1 0.1 0.5 0.1 1.1 0.1 1.8v5.3h8.8v-8.8h2.6V223.8z"/><path class="st0" d="M98.2 207.9h2.6v15.9c0 0.9 0.1 1.6 0.4 2.1 0.2 0.5 0.8 0.8 1.7 0.8h0.6v0.6h-2.6c-0.5 0-0.9 0-1.3-0.1 -0.3-0.1-0.6-0.3-0.8-0.5 -0.2-0.3-0.3-0.6-0.4-1.1 -0.1-0.5-0.1-1-0.1-1.8V207.9z"/><path class="st0" d="M118.3 218.4h-2.1v9h-2.6v-15.9c0-0.9-0.1-1.6-0.4-2.1 -0.2-0.5-0.8-0.8-1.7-0.8H111v-0.6h7.6c0.6 0 1.4 0.1 2.2 0.2 0.8 0.1 1.6 0.3 2.4 0.7 0.8 0.4 1.4 0.9 1.9 1.6 0.5 0.7 0.8 1.6 0.8 2.8 0 0.8-0.1 1.6-0.4 2.1 -0.3 0.6-0.7 1.1-1.1 1.5 -0.5 0.4-1 0.7-1.5 0.9 -0.6 0.2-1.1 0.4-1.6 0.5l3.1 5.1c0.4 0.6 0.7 1.1 1 1.6 0.3 0.4 0.6 0.7 1 1 0.3 0.3 0.6 0.5 0.9 0.6 0.3 0.1 0.7 0.2 1 0.2v0.6c-0.2 0.1-0.4 0.1-0.7 0.2 -0.3 0.1-0.7 0.1-1 0.1 -0.5 0-1-0.1-1.4-0.2 -0.4-0.1-0.9-0.4-1.3-0.7 -0.4-0.3-0.8-0.8-1.2-1.3 -0.4-0.5-0.9-1.2-1.3-2L118.3 218.4zM118.4 217.3c0.4 0 0.9-0.1 1.4-0.2 0.5-0.2 1-0.4 1.5-0.7 0.5-0.3 0.9-0.7 1.2-1.3 0.3-0.5 0.5-1.2 0.5-1.9 0-0.8-0.2-1.4-0.5-2 -0.3-0.5-0.7-1-1.2-1.3 -0.5-0.3-1-0.6-1.5-0.7 -0.5-0.2-1-0.2-1.4-0.2 -0.4 0-0.8 0-1.2 0.1 -0.4 0.1-0.7 0.1-1 0.2v7.8c0.3 0.1 0.6 0.1 1 0.2C117.7 217.3 118.1 217.3 118.4 217.3z"/><path class="st0" d="M135.8 217.6c0-1.4 0.2-2.8 0.6-4 0.4-1.3 1-2.3 1.8-3.3 0.8-0.9 1.8-1.7 2.9-2.2 1.1-0.5 2.4-0.8 3.8-0.8 1.4 0 2.6 0.3 3.8 0.8 1.1 0.5 2.1 1.3 2.9 2.2 0.8 0.9 1.4 2 1.8 3.3 0.4 1.3 0.6 2.6 0.6 4 0 1.4-0.2 2.8-0.6 4 -0.4 1.2-1 2.3-1.8 3.3s-1.8 1.7-2.9 2.2c-1.1 0.5-2.4 0.8-3.8 0.8 -1.4 0-2.6-0.3-3.8-0.8 -1.1-0.5-2.1-1.3-2.9-2.2 -0.8-0.9-1.4-2-1.8-3.3S135.8 219.1 135.8 217.6zM151.1 217.6c0-1.4-0.1-2.6-0.4-3.8 -0.3-1.1-0.7-2.1-1.2-2.9s-1.2-1.4-1.9-1.8c-0.8-0.4-1.6-0.6-2.6-0.6 -1 0-1.8 0.2-2.6 0.6 -0.8 0.4-1.4 1-1.9 1.8 -0.5 0.8-0.9 1.8-1.2 2.9 -0.3 1.1-0.4 2.4-0.4 3.8 0 1.4 0.1 2.6 0.4 3.8 0.3 1.1 0.7 2.1 1.2 2.9 0.5 0.8 1.2 1.4 1.9 1.8 0.8 0.4 1.6 0.6 2.6 0.6 1 0 1.8-0.2 2.6-0.6 0.8-0.4 1.4-1 1.9-1.8 0.5-0.8 0.9-1.8 1.2-2.9C151 220.3 151.1 219 151.1 217.6z"/><path class="st0" d="M167.5 227.3h-2.6v-15.9c0-0.9-0.1-1.6-0.4-2.1 -0.2-0.5-0.8-0.8-1.7-0.8h-0.6v-0.6h7.6c0.6 0 1.4 0.1 2.2 0.2 0.8 0.1 1.6 0.4 2.4 0.8 0.8 0.4 1.4 1 1.9 1.8 0.5 0.8 0.8 1.8 0.8 3.1 0 0.8-0.1 1.6-0.4 2.2 -0.2 0.6-0.6 1.1-1 1.5 -0.4 0.4-0.8 0.7-1.3 1 -0.5 0.3-1 0.4-1.4 0.6 -0.5 0.1-0.9 0.2-1.4 0.3 -0.4 0-0.8 0.1-1 0.1h-3.2V227.3zM169.7 218.4c0.4 0 0.9-0.1 1.4-0.2s1-0.4 1.5-0.8c0.5-0.4 0.9-0.9 1.2-1.5 0.3-0.6 0.5-1.3 0.5-2.2 0-0.9-0.2-1.6-0.5-2.2 -0.3-0.6-0.7-1.1-1.2-1.5 -0.5-0.4-1-0.6-1.5-0.8s-1-0.2-1.4-0.2c-0.4 0-0.8 0-1.2 0.1 -0.4 0.1-0.7 0.1-1 0.2v8.8c0.3 0.1 0.6 0.1 1 0.2C168.9 218.3 169.3 218.4 169.7 218.4z"/><path class="st0" d="M192.3 218.4h-2.1v9h-2.6v-15.9c0-0.9-0.1-1.6-0.4-2.1 -0.2-0.5-0.8-0.8-1.7-0.8h-0.6v-0.6h7.6c0.6 0 1.4 0.1 2.2 0.2 0.8 0.1 1.6 0.3 2.4 0.7 0.8 0.4 1.4 0.9 1.9 1.6 0.5 0.7 0.8 1.6 0.8 2.8 0 0.8-0.1 1.6-0.4 2.1 -0.3 0.6-0.7 1.1-1.1 1.5 -0.5 0.4-1 0.7-1.5 0.9 -0.6 0.2-1.1 0.4-1.6 0.5l3.1 5.1c0.4 0.6 0.7 1.1 1 1.6 0.3 0.4 0.6 0.7 1 1 0.3 0.3 0.6 0.5 0.9 0.6 0.3 0.1 0.7 0.2 1 0.2v0.6c-0.2 0.1-0.4 0.1-0.7 0.2 -0.3 0.1-0.7 0.1-1 0.1 -0.5 0-1-0.1-1.4-0.2 -0.4-0.1-0.9-0.4-1.3-0.7 -0.4-0.3-0.8-0.8-1.2-1.3 -0.4-0.5-0.9-1.2-1.3-2L192.3 218.4zM192.4 217.3c0.4 0 0.9-0.1 1.4-0.2s1-0.4 1.5-0.7c0.5-0.3 0.9-0.7 1.2-1.3 0.3-0.5 0.5-1.2 0.5-1.9 0-0.8-0.2-1.4-0.5-2 -0.3-0.5-0.7-1-1.2-1.3 -0.5-0.3-1-0.6-1.5-0.7s-1-0.2-1.4-0.2c-0.4 0-0.8 0-1.2 0.1 -0.4 0.1-0.7 0.1-1 0.2v7.8c0.3 0.1 0.6 0.1 1 0.2C191.7 217.3 192 217.3 192.4 217.3z"/><path class="st0" d="M227.9 227.3c-0.3 0.1-0.7 0.1-1.2 0.1 -0.3 0-0.7 0-1.2-0.1 -0.4-0.1-0.9-0.2-1.4-0.5s-0.9-0.7-1.4-1.2c-0.4-0.5-0.8-1.2-1.1-2l-0.7-1.9h-8.2l-2.4 5.6h-1.3l8.2-19.4h0.9l6.5 15.7c0.2 0.5 0.5 1 0.7 1.4 0.2 0.4 0.4 0.7 0.7 0.9 0.3 0.2 0.5 0.4 0.8 0.5 0.3 0.1 0.6 0.2 1.1 0.2V227.3zM213.2 220.6h7.2l-3.5-8.5L213.2 220.6z"/><path class="st0" d="M248.6 207.9v1.2H242v18.2h-2.6v-18.2h-2.6c-1.2 0-2.1 0.3-2.7 0.8 -0.6 0.5-1 1.4-1 2.6h-0.6v-2.2c0-0.3 0-0.6 0.1-0.9 0.1-0.3 0.2-0.5 0.4-0.7s0.4-0.4 0.8-0.5c0.3-0.1 0.7-0.2 1.2-0.2H248.6z"/><path class="st0" d="M258.1 207.9h2.6v15.9c0 0.9 0.1 1.6 0.4 2.1 0.2 0.5 0.8 0.8 1.7 0.8h0.6v0.6h-2.6c-0.5 0-0.9 0-1.3-0.1 -0.3-0.1-0.6-0.3-0.8-0.5 -0.2-0.3-0.3-0.6-0.4-1.1 -0.1-0.5-0.1-1-0.1-1.8V207.9z"/><path class="st0" d="M271.6 217.6c0-1.4 0.2-2.8 0.6-4 0.4-1.3 1-2.3 1.8-3.3 0.8-0.9 1.8-1.7 2.9-2.2 1.1-0.5 2.4-0.8 3.8-0.8 1.4 0 2.6 0.3 3.8 0.8 1.1 0.5 2.1 1.3 2.9 2.2 0.8 0.9 1.4 2 1.8 3.3 0.4 1.3 0.6 2.6 0.6 4 0 1.2-0.2 2.4-0.5 3.5 -0.3 1.1-0.7 2.1-1.3 2.9 -0.6 0.9-1.3 1.6-2.1 2.2 -0.8 0.6-1.8 1.1-2.8 1.3 0.2 0.7 0.6 1.4 1.1 2.1 0.5 0.6 1.1 1.2 1.8 1.6s1.3 0.8 2.1 1.1c0.7 0.3 1.4 0.4 2 0.4v0.6c-1.1 0-2.1-0.1-3.2-0.3 -1.1-0.2-2.1-0.5-3.1-0.9 -1-0.4-2-1-3-1.8 -1-0.8-1.9-1.7-2.8-2.8 -1-0.3-1.9-0.7-2.7-1.4s-1.5-1.4-2-2.2c-0.6-0.9-1-1.8-1.3-2.9C271.7 220 271.6 218.8 271.6 217.6zM286.8 217.6c0-1.4-0.1-2.6-0.4-3.8 -0.3-1.1-0.7-2.1-1.2-2.9 -0.5-0.8-1.2-1.4-1.9-1.8 -0.8-0.4-1.6-0.6-2.6-0.6 -1 0-1.8 0.2-2.6 0.6 -0.8 0.4-1.4 1-1.9 1.8 -0.5 0.8-0.9 1.8-1.2 2.9 -0.3 1.1-0.4 2.4-0.4 3.8 0 1.4 0.1 2.6 0.4 3.8 0.3 1.1 0.7 2.1 1.2 2.9 0.5 0.8 1.2 1.4 1.9 1.8 0.8 0.4 1.6 0.6 2.6 0.6 1 0 1.8-0.2 2.6-0.6 0.8-0.4 1.4-1 1.9-1.8 0.5-0.8 0.9-1.8 1.2-2.9C286.7 220.3 286.8 219 286.8 217.6z"/><path class="st0" d="M300.6 211.5c0-0.9-0.1-1.6-0.4-2.1 -0.2-0.5-0.8-0.8-1.7-0.8h-0.6v-0.6h2.6c0.5 0 0.9 0 1.3 0.1 0.3 0.1 0.6 0.3 0.8 0.5 0.2 0.3 0.3 0.6 0.4 1.1 0.1 0.5 0.1 1.1 0.1 1.8v8.4c0 1 0.1 2 0.3 2.8 0.2 0.8 0.5 1.5 0.9 2.1 0.4 0.6 0.9 1 1.6 1.3 0.7 0.3 1.5 0.5 2.5 0.5 1.1 0 2.1-0.1 2.8-0.4 0.8-0.3 1.4-0.7 1.9-1.4 0.5-0.6 0.8-1.4 1-2.3 0.2-0.9 0.3-2.1 0.3-3.3v-11h1.2v11c0 1.4-0.1 2.7-0.3 3.8 -0.2 1.1-0.6 2-1.2 2.7 -0.6 0.7-1.3 1.3-2.3 1.6 -1 0.4-2.2 0.5-3.7 0.5 -1.4 0-2.6-0.2-3.6-0.5 -1-0.4-1.7-0.9-2.3-1.6 -0.6-0.7-1-1.6-1.2-2.7 -0.2-1.1-0.4-2.3-0.4-3.8V211.5z"/><path class="st0" d="M337.4 207.9c0.5 0 0.9 0.1 1.2 0.2 0.3 0.1 0.6 0.3 0.8 0.5 0.2 0.2 0.3 0.5 0.4 0.7 0.1 0.3 0.1 0.6 0.1 0.9v2.2h-0.6c0-1.2-0.3-2-1-2.6 -0.6-0.5-1.5-0.8-2.7-0.8h-5.5v7.6h7.9v1.2h-7.9v8.2h5.1c1.3 0 2.4-0.2 3.2-0.7 0.8-0.5 1.4-1.3 1.8-2.5l0.6 0.1 -1 2.8c-0.2 0.5-0.4 0.8-0.8 1.1 -0.4 0.3-0.8 0.4-1.4 0.4h-10.1v-15.9c0-0.9-0.1-1.6-0.4-2.1 -0.2-0.5-0.8-0.8-1.7-0.8h-0.6v-0.6H337.4z"/><path class="st1" d="M120.1 192.3h-5.9v-35.5c0-2-0.3-3.6-0.8-4.8 -0.5-1.2-1.8-1.8-3.8-1.8h-1.3v-1.3h17.1c1.4 0 3 0.1 4.9 0.4 1.9 0.3 3.7 0.8 5.4 1.7 1.7 0.9 3.2 2.2 4.3 4 1.2 1.8 1.8 4.1 1.8 7 0 1.9-0.3 3.5-0.8 4.8 -0.5 1.3-1.3 2.5-2.1 3.4 -0.9 0.9-1.9 1.7-2.9 2.2 -1.1 0.6-2.2 1-3.2 1.3 -1.1 0.3-2.1 0.5-3 0.6 -0.9 0.1-1.7 0.2-2.3 0.2h-7.2V192.3zM125 172.2c0.9 0 2-0.2 3.1-0.5 1.2-0.4 2.3-0.9 3.3-1.8 1.1-0.8 1.9-1.9 2.7-3.3 0.7-1.3 1.1-3 1.1-5 0-2-0.4-3.6-1.1-5 -0.7-1.3-1.6-2.4-2.7-3.3 -1.1-0.8-2.2-1.4-3.3-1.8 -1.2-0.4-2.2-0.5-3.1-0.5 -0.8 0-1.7 0.1-2.6 0.2 -0.9 0.1-1.7 0.3-2.3 0.5v19.7c0.7 0.2 1.4 0.3 2.3 0.5C123.3 172.2 124.2 172.2 125 172.2z"/><path class="st1" d="M166.1 172.2h-4.6v20.1h-5.9v-35.5c0-2-0.3-3.6-0.8-4.8 -0.5-1.2-1.8-1.8-3.8-1.8h-1.3v-1.3h17.1c1.4 0 3 0.1 4.9 0.4 1.9 0.2 3.7 0.8 5.4 1.6 1.7 0.8 3.2 2 4.3 3.6 1.2 1.6 1.8 3.7 1.8 6.3 0 1.9-0.3 3.5-1 4.8 -0.7 1.3-1.5 2.4-2.5 3.3 -1 0.9-2.2 1.5-3.4 2 -1.3 0.5-2.4 0.9-3.6 1.1l6.9 11.5c0.8 1.4 1.6 2.6 2.3 3.5s1.4 1.7 2.1 2.3c0.7 0.6 1.4 1 2.1 1.3 0.7 0.3 1.5 0.4 2.3 0.5v1.3c-0.4 0.2-0.9 0.3-1.6 0.5 -0.7 0.1-1.5 0.2-2.3 0.2 -1.1 0-2.2-0.2-3.2-0.5 -1-0.3-1.9-0.8-2.9-1.6 -0.9-0.7-1.9-1.7-2.8-3 -0.9-1.2-1.9-2.7-3-4.5L166.1 172.2zM166.4 169.9c0.9 0 2-0.2 3.1-0.5 1.2-0.4 2.3-0.9 3.3-1.6 1.1-0.7 1.9-1.7 2.7-2.8 0.7-1.2 1.1-2.6 1.1-4.2 0-1.7-0.4-3.2-1.1-4.4 -0.7-1.2-1.6-2.2-2.7-3 -1.1-0.7-2.2-1.3-3.3-1.6 -1.2-0.4-2.2-0.5-3.1-0.5 -0.8 0-1.7 0.1-2.6 0.2 -0.9 0.1-1.7 0.3-2.3 0.5v17.4c0.7 0.2 1.4 0.3 2.3 0.5C164.7 169.8 165.6 169.9 166.4 169.9z"/><path class="st1" d="M236.4 192.3c-0.7 0.2-1.6 0.3-2.6 0.3 -0.7 0-1.6-0.1-2.6-0.3 -1-0.2-2-0.6-3-1.2 -1-0.6-2-1.5-3-2.6 -1-1.1-1.8-2.7-2.5-4.5l-1.6-4.3h-18.4l-5.3 12.5h-3l18.4-43.4h2l14.5 35.2c0.5 1.2 1 2.3 1.5 3.1 0.5 0.9 1 1.5 1.5 2.1 0.6 0.5 1.2 0.9 1.8 1.2 0.7 0.3 1.4 0.4 2.4 0.5V192.3zM203.5 177.2h16.1l-7.9-19.1L203.5 177.2z"/><path class="st1" d="M246.9 156.7c0-2-0.4-3.6-1.3-4.8 -0.8-1.2-2.4-1.8-4.7-1.8h-0.7v-1.3h4.3c2.1 0 3.9 0.4 5.3 1.1 1.4 0.7 2.6 1.7 3.6 2.9l23 28.6v-32.6h2.6v44.1h-1.3l-28.3-35.2v34.6h-2.6V156.7z"/><path class="st1" d="M333 192.3c-0.7 0.2-1.6 0.3-2.6 0.3 -0.7 0-1.6-0.1-2.6-0.3 -1-0.2-2-0.6-3-1.2 -1-0.6-2-1.5-3-2.6 -1-1.1-1.8-2.7-2.5-4.5l-1.6-4.3h-18.4l-5.3 12.5h-3l18.4-43.4h2l14.5 35.2c0.5 1.2 1 2.3 1.5 3.1 0.5 0.9 1 1.5 1.5 2.1 0.6 0.5 1.2 0.9 1.8 1.2 0.7 0.3 1.4 0.4 2.4 0.5V192.3zM300.1 177.2h16.1l-7.9-19.1L300.1 177.2z"/></svg>
 
